<mxfile host="app.diagrams.net" modified="2024-01-05T14:42:56.371Z" agent="Mozilla/5.0 (X11; Linux x86_64) AppleWebKit/537.36 (KHTML, like Gecko) SamsungBrowser/22.0 Chrome/111.0.5563.116 Safari/537.36" etag="lSr56U117ickPaSQ4b-p" version="22.1.16" type="github">
  <diagram name="PÃ¡gina-1" id="6sLRgLwYYpi-3yHptUsi">
    <mxGraphModel dx="4617" dy="1287" grid="1" gridSize="10" guides="1" tooltips="1" connect="1" arrows="1" fold="1" page="1" pageScale="1" pageWidth="827" pageHeight="1169" math="0" shadow="0">
      <root>
        <mxCell id="0" />
        <mxCell id="1" parent="0" />
        <mxCell id="jhSw1dUUZU4RTLsdpQBK-1" value="" style="rounded=1;whiteSpace=wrap;html=1;" vertex="1" parent="1">
          <mxGeometry x="-1320" y="60" width="120" height="60" as="geometry" />
        </mxCell>
        <mxCell id="jhSw1dUUZU4RTLsdpQBK-2" value="" style="rounded=1;whiteSpace=wrap;html=1;" vertex="1" parent="1">
          <mxGeometry x="-1560" y="190" width="120" height="60" as="geometry" />
        </mxCell>
      </root>
    </mxGraphModel>
  </diagram>
</mxfile>
